<svg width="27" height="27" viewBox="0 0 27 27" fill="none" xmlns="http://www.w3.org/2000/svg">
<path d="M21.9375 14.0781V6.75C21.9368 6.0789 21.6698 5.43549 21.1953 4.96095C20.7208 4.48641 20.0774 4.21949 19.4063 4.21875H17.7188V3.79688C17.7188 3.23743 17.4965 2.70091 17.1009 2.30532C16.7053 1.90974 16.1688 1.6875 15.6094 1.6875C15.0499 1.6875 14.5134 1.90974 14.1178 2.30532C13.7222 2.70091 13.5 3.23743 13.5 3.79688V4.21875H10.125V3.79688C10.125 3.23743 9.90276 2.70091 9.50718 2.30532C9.11159 1.90974 8.57507 1.6875 8.01563 1.6875C7.45618 1.6875 6.91966 1.90974 6.52407 2.30532C6.12849 2.70091 5.90625 3.23743 5.90625 3.79688V4.21875H4.21875C3.54765 4.21949 2.90424 4.48641 2.4297 4.96095C1.95516 5.43549 1.68824 6.0789 1.6875 6.75V21.9375C1.68824 22.6086 1.95516 23.252 2.4297 23.7266C2.90424 24.2011 3.54765 24.468 4.21875 24.4688H16.3799C17.0651 24.8797 17.8267 25.1472 18.6184 25.2549C19.4102 25.3626 20.2155 25.3084 20.9856 25.0955C21.7558 24.8826 22.4746 24.5155 23.0986 24.0164C23.7225 23.5173 24.2386 22.8966 24.6154 22.192C24.9923 21.4875 25.2221 20.7137 25.2909 19.9176C25.3596 19.1216 25.266 18.3198 25.0155 17.5611C24.7651 16.8023 24.3632 16.1023 23.834 15.5036C23.3049 14.9049 22.6597 14.4199 21.9375 14.0781ZM15.1875 3.79688C15.1875 3.68499 15.2319 3.57768 15.3111 3.49856C15.3902 3.41945 15.4975 3.375 15.6094 3.375C15.7213 3.375 15.8286 3.41945 15.9077 3.49856C15.9868 3.57768 16.0313 3.68499 16.0313 3.79688V6.32813C16.0313 6.44001 15.9868 6.54732 15.9077 6.62644C15.8286 6.70555 15.7213 6.75 15.6094 6.75C15.4975 6.75 15.3902 6.70555 15.3111 6.62644C15.2319 6.54732 15.1875 6.44001 15.1875 6.32813V3.79688ZM7.59375 3.79688C7.59375 3.68499 7.6382 3.57768 7.71731 3.49856C7.79643 3.41945 7.90374 3.375 8.01563 3.375C8.12751 3.375 8.23482 3.41945 8.31394 3.49856C8.39305 3.57768 8.4375 3.68499 8.4375 3.79688V6.32813C8.4375 6.44001 8.39305 6.54732 8.31394 6.62644C8.23482 6.70555 8.12751 6.75 8.01563 6.75C7.90374 6.75 7.79643 6.70555 7.71731 6.62644C7.6382 6.54732 7.59375 6.44001 7.59375 6.32813V3.79688ZM4.21875 5.90625H5.90625V6.32813C5.90625 6.88757 6.12849 7.42409 6.52407 7.81968C6.91966 8.21526 7.45618 8.4375 8.01563 8.4375C8.57507 8.4375 9.11159 8.21526 9.50718 7.81968C9.90276 7.42409 10.125 6.88757 10.125 6.32813V5.90625H13.5V6.32813C13.5 6.88757 13.7222 7.42409 14.1178 7.81968C14.5134 8.21526 15.0499 8.4375 15.6094 8.4375C16.1688 8.4375 16.7053 8.21526 17.1009 7.81968C17.4965 7.42409 17.7188 6.88757 17.7188 6.32813V5.90625H19.4063C19.63 5.90645 19.8445 5.99541 20.0027 6.1536C20.1608 6.31179 20.2498 6.52629 20.25 6.75V9.28125H3.375V6.75C3.37529 6.52631 3.46428 6.31187 3.62245 6.1537C3.78062 5.99553 3.99506 5.90654 4.21875 5.90625ZM3.375 21.9375V10.9688H20.25V13.5675C19.1108 13.4004 17.9476 13.5707 16.9041 14.0572C15.8605 14.5436 14.9823 15.3251 14.3778 16.305C13.7733 17.285 13.469 18.4205 13.5025 19.5714C13.536 20.7223 13.9059 21.8381 14.5663 22.7813H4.21875C3.99506 22.781 3.78062 22.692 3.62245 22.5338C3.46428 22.3756 3.37529 22.1612 3.375 21.9375ZM19.4063 23.625C18.5719 23.625 17.7562 23.3776 17.0624 22.914C16.3687 22.4505 15.8279 21.7916 15.5086 21.0207C15.1893 20.2498 15.1058 19.4016 15.2686 18.5832C15.4313 17.7649 15.8331 17.0131 16.4231 16.4231C17.0131 15.8331 17.7649 15.4313 18.5832 15.2686C19.4016 15.1058 20.2498 15.1893 21.0207 15.5086C21.7916 15.8279 22.4505 16.3687 22.914 17.0624C23.3776 17.7562 23.625 18.5719 23.625 19.4063C23.6237 20.5247 23.1788 21.597 22.3879 22.3879C21.597 23.1788 20.5247 23.6237 19.4063 23.625Z" fill="#82D3AC"/>
<path d="M21.0938 18.5625H20.25V16.875C20.25 16.6512 20.1611 16.4366 20.0029 16.2784C19.8446 16.1201 19.63 16.0312 19.4062 16.0312C19.1825 16.0312 18.9679 16.1201 18.8096 16.2784C18.6514 16.4366 18.5625 16.6512 18.5625 16.875V19.4062C18.5625 19.63 18.6514 19.8446 18.8096 20.0029C18.9679 20.1611 19.1825 20.25 19.4062 20.25H21.0938C21.3175 20.25 21.5321 20.1611 21.6904 20.0029C21.8486 19.8446 21.9375 19.63 21.9375 19.4062C21.9375 19.1825 21.8486 18.9679 21.6904 18.8096C21.5321 18.6514 21.3175 18.5625 21.0938 18.5625Z" fill="#82D3AC"/>
</svg>
