<svg width="30" height="30" viewBox="0 0 30 30" fill="none" xmlns="http://www.w3.org/2000/svg">
<path d="M24.5505 6.98029L19.9316 2.36128C19.9312 2.36094 19.9309 2.36069 19.9305 2.36034C19.7915 2.22172 19.6001 2.14258 19.4036 2.14258H6.10403C5.6917 2.14258 5.35742 2.47686 5.35742 2.88918V26.7806C5.35742 27.1929 5.6917 27.5272 6.10403 27.5272H24.0226C24.4349 27.5272 24.7692 27.1929 24.7692 26.7806V7.50819C24.7692 7.31611 24.6927 7.12244 24.5505 6.98029ZM20.1502 4.69169C20.3696 4.91104 22.0007 6.54218 22.2201 6.76158H20.1502V4.69169ZM6.85063 26.034V3.63579H18.657V7.50819C18.657 7.92051 18.9913 8.2548 19.4036 8.2548H23.276V26.034H6.85063Z" fill="#82D3AC"/>
<path d="M9.35012 13.0915H13.6861C14.0984 13.0915 14.4327 12.7572 14.4327 12.3449V7.06887C14.4327 6.65655 14.0984 6.32227 13.6861 6.32227H9.35012C8.9378 6.32227 8.60352 6.65655 8.60352 7.06887V12.3449C8.60352 12.7572 8.93775 13.0915 9.35012 13.0915ZM10.0967 7.81548H12.9395V11.5983H10.0967V7.81548Z" fill="#82D3AC"/>
<path d="M20.771 15.1338H9.35891C8.94658 15.1338 8.6123 15.4681 8.6123 15.8804C8.6123 16.2927 8.94658 16.627 9.35891 16.627H20.771C21.1834 16.627 21.5176 16.2927 21.5176 15.8804C21.5176 15.4681 21.1834 15.1338 20.771 15.1338Z" fill="#82D3AC"/>
<path d="M20.7713 11.7734H17.106C16.6937 11.7734 16.3594 12.1077 16.3594 12.52C16.3594 12.9324 16.6937 13.2667 17.106 13.2667H20.7713C21.1836 13.2667 21.5179 12.9324 21.5179 12.52C21.5179 12.1077 21.1837 11.7734 20.7713 11.7734Z" fill="#82D3AC"/>
<path d="M20.771 18.4922H9.35891C8.94658 18.4922 8.6123 18.8265 8.6123 19.2388C8.6123 19.6511 8.94658 19.9854 9.35891 19.9854H20.771C21.1834 19.9854 21.5176 19.6511 21.5176 19.2388C21.5176 18.8265 21.1834 18.4922 20.771 18.4922Z" fill="#82D3AC"/>
<path d="M20.771 21.8535H9.35891C8.94658 21.8535 8.6123 22.1878 8.6123 22.6001C8.6123 23.0124 8.94658 23.3467 9.35891 23.3467H20.771C21.1834 23.3467 21.5176 23.0124 21.5176 22.6001C21.5176 22.1878 21.1834 21.8535 20.771 21.8535Z" fill="#82D3AC"/>
</svg>
