<svg width="26" height="26" viewBox="0 0 26 26" fill="none" xmlns="http://www.w3.org/2000/svg">
<path d="M13.0001 12.0716C14.1021 12.0716 15.1792 11.7448 16.0955 11.1326C17.0117 10.5204 17.7258 9.65028 18.1475 8.63224C18.5692 7.61419 18.6795 6.49396 18.4645 5.41321C18.2495 4.33246 17.7189 3.33973 16.9397 2.56055C16.1606 1.78137 15.1678 1.25074 14.0871 1.03577C13.0063 0.820792 11.8861 0.931125 10.868 1.35281C9.85 1.7745 8.97986 2.48861 8.36767 3.40482C7.75547 4.32104 7.42871 5.39822 7.42871 6.50014C7.43019 7.97732 8.01765 9.39358 9.06217 10.4381C10.1067 11.4826 11.523 12.0701 13.0001 12.0716ZM13.0001 2.78586C13.7348 2.78586 14.4529 3.0037 15.0637 3.41183C15.6745 3.81996 16.1506 4.40005 16.4317 5.07875C16.7128 5.75744 16.7864 6.50426 16.6431 7.22476C16.4997 7.94526 16.146 8.60709 15.6265 9.12654C15.1071 9.64599 14.4453 9.99974 13.7248 10.1431C13.0043 10.2864 12.2574 10.2128 11.5787 9.93169C10.9 9.65057 10.32 9.1745 9.91182 8.56369C9.50369 7.95288 9.28585 7.23476 9.28585 6.50014C9.28585 5.51505 9.67718 4.57031 10.3737 3.87375C11.0703 3.17718 12.015 2.78586 13.0001 2.78586Z" fill="#82D3AC"/>
<path d="M15.6767 13.9287H10.3225C8.57031 13.9309 6.89052 14.628 5.65161 15.8671C4.4127 17.1062 3.71583 18.7861 3.71387 20.5383C3.7151 21.7402 4.1931 22.8926 5.04299 23.7424C5.89288 24.5923 7.04523 25.0703 8.24715 25.0716H17.7511C18.9533 25.0703 20.1058 24.5922 20.9559 23.7422C21.806 22.8921 22.2841 21.7395 22.2853 20.5374C22.2833 18.7852 21.5864 17.1054 20.3475 15.8665C19.1086 14.6276 17.4288 13.9307 15.6767 13.9287ZM17.7511 23.2144H8.24715C7.53754 23.2134 6.85728 22.9311 6.35559 22.4292C5.8539 21.9273 5.57175 21.247 5.57101 20.5374C5.57224 19.2776 6.07324 18.0697 6.96405 17.1789C7.85486 16.2881 9.06271 15.7871 10.3225 15.7859H15.6767C16.9365 15.7876 18.1442 16.2889 19.0349 17.1798C19.9256 18.0707 20.4267 19.2785 20.4282 20.5383C20.4272 21.2479 20.1448 21.9282 19.6429 22.4298C19.1411 22.9315 18.4607 23.2137 17.7511 23.2144Z" fill="#82D3AC"/>
</svg>
