<svg width="75" height="45" viewBox="0 0 75 45" fill="none" xmlns="http://www.w3.org/2000/svg">
<rect x="0.5" y="0.5" width="74" height="44" rx="3.5" fill="white"/>
<rect x="0.5" y="0.5" width="74" height="44" rx="3.5" stroke="#5A8F7B"/>
<path d="M31.3462 25.5729V26.8203H20V25.5729H24.8901V23.5797H21.3462V19.5661H28.489V18.0475H21.3187V16.8271H30V20.7593H22.8709V22.3458H30.2885V23.5797H26.4011V25.5729H31.3462Z" fill="#5A8F7B"/>
<path d="M42.033 17.1797V18.5627C42.033 20.2034 42.033 21.8983 41.5797 24.4746L40.0275 24.339C40.5082 21.9254 40.5082 20.1492 40.5082 18.5627V18.4H33.3516V17.1797H42.033ZM43.4753 25.3288V26.5627H32.1566V25.3288H43.4753Z" fill="#5A8F7B"/>
<path d="M54.6566 16V24.8542H53.1181V16H54.6566ZM55 26.7797V28H46.4423V23.9593H47.9808V26.7797H55ZM47.8846 16.8C49.7665 16.8 51.2225 18.0881 51.2225 19.8644C51.2225 21.6814 49.7665 22.9424 47.8846 22.9424C45.989 22.9424 44.533 21.6814 44.533 19.8644C44.533 18.0881 45.989 16.8 47.8846 16.8ZM47.8846 18.1153C46.8269 18.1153 46.0165 18.8068 46.0302 19.8644C46.0165 20.9492 46.8269 21.6271 47.8846 21.6271C48.9148 21.6271 49.7253 20.9492 49.7253 19.8644C49.7253 18.8068 48.9148 18.1153 47.8846 18.1153Z" fill="#5A8F7B"/>
</svg>
