<svg width="84" height="45" viewBox="0 0 84 45" fill="none" xmlns="http://www.w3.org/2000/svg">
<rect width="84" height="45" rx="4" fill="#5A8F7B"/>
<path d="M20.5542 24.024H21.7162V26.11H20.5542V24.024ZM26.0982 16.422H27.2602V29.092H26.0982V16.422ZM17.1802 26.684L17.0122 25.704C17.8149 25.6947 18.6829 25.6853 19.6162 25.676C20.5495 25.6667 21.5015 25.634 22.4722 25.578C23.4429 25.522 24.3809 25.4333 25.2862 25.312L25.3702 26.18C24.4369 26.3293 23.4895 26.4413 22.5282 26.516C21.5669 26.5813 20.6289 26.628 19.7142 26.656C18.7995 26.6747 17.9549 26.684 17.1802 26.684ZM17.2782 17.976H24.9642V18.914H17.2782V17.976ZM21.1142 19.628C21.7209 19.628 22.2529 19.726 22.7102 19.922C23.1675 20.118 23.5222 20.3933 23.7742 20.748C24.0355 21.0933 24.1662 21.504 24.1662 21.98C24.1662 22.4467 24.0355 22.8573 23.7742 23.212C23.5222 23.5667 23.1675 23.842 22.7102 24.038C22.2529 24.2247 21.7209 24.318 21.1142 24.318C20.5169 24.318 19.9895 24.2247 19.5322 24.038C19.0749 23.842 18.7202 23.5667 18.4682 23.212C18.2162 22.8573 18.0902 22.4467 18.0902 21.98C18.0902 21.504 18.2162 21.0933 18.4682 20.748C18.7202 20.3933 19.0749 20.118 19.5322 19.922C19.9895 19.726 20.5169 19.628 21.1142 19.628ZM21.1142 20.538C20.5542 20.538 20.0922 20.6687 19.7282 20.93C19.3642 21.1913 19.1822 21.5413 19.1822 21.98C19.1822 22.4093 19.3642 22.7547 19.7282 23.016C20.0922 23.2773 20.5542 23.408 21.1142 23.408C21.6929 23.408 22.1595 23.2773 22.5142 23.016C22.8782 22.7547 23.0602 22.4093 23.0602 21.98C23.0602 21.5413 22.8782 21.1913 22.5142 20.93C22.1595 20.6687 21.6929 20.538 21.1142 20.538ZM20.5542 16.436H21.7162V18.48H20.5542V16.436ZM33.4051 22.806H34.5671V25.62H33.4051V22.806ZM39.0191 16.436H40.1811V26.054H39.0191V16.436ZM31.5431 27.86H40.4891V28.812H31.5431V27.86ZM31.5431 25.116H32.7051V28.112H31.5431V25.116ZM29.9051 23.24L29.7511 22.274C30.5351 22.274 31.3844 22.2693 32.2991 22.26C33.2231 22.2413 34.1658 22.2087 35.1271 22.162C36.0884 22.106 37.0171 22.022 37.9131 21.91L37.9971 22.75C37.0918 22.8993 36.1584 23.0113 35.1971 23.086C34.2451 23.1513 33.3164 23.1933 32.4111 23.212C31.5058 23.2307 30.6704 23.24 29.9051 23.24ZM36.4431 23.912H39.3271V24.752H36.4431V23.912ZM33.8671 16.94C34.4924 16.94 35.0384 17.0333 35.5051 17.22C35.9718 17.3973 36.3311 17.654 36.5831 17.99C36.8444 18.3167 36.9751 18.704 36.9751 19.152C36.9751 19.5907 36.8444 19.978 36.5831 20.314C36.3311 20.65 35.9718 20.9067 35.5051 21.084C35.0384 21.2613 34.4924 21.35 33.8671 21.35C33.2511 21.35 32.7051 21.2613 32.2291 21.084C31.7624 20.9067 31.3984 20.65 31.1371 20.314C30.8851 19.978 30.7591 19.5907 30.7591 19.152C30.7591 18.704 30.8851 18.3167 31.1371 17.99C31.3984 17.654 31.7624 17.3973 32.2291 17.22C32.7051 17.0333 33.2511 16.94 33.8671 16.94ZM33.8671 17.808C33.2698 17.808 32.7844 17.9293 32.4111 18.172C32.0378 18.4147 31.8511 18.7413 31.8511 19.152C31.8511 19.5533 32.0378 19.8753 32.4111 20.118C32.7844 20.3607 33.2698 20.482 33.8671 20.482C34.4551 20.482 34.9358 20.3607 35.3091 20.118C35.6824 19.8753 35.8691 19.5533 35.8691 19.152C35.8691 18.872 35.7851 18.634 35.6171 18.438C35.4491 18.242 35.2158 18.088 34.9171 17.976C34.6184 17.864 34.2684 17.808 33.8671 17.808ZM51.268 16.422H52.43V29.078H51.268V16.422ZM52.122 21.56H54.446V22.526H52.122V21.56ZM48.034 17.78H49.168C49.168 18.984 48.972 20.1367 48.58 21.238C48.188 22.33 47.572 23.3427 46.732 24.276C45.892 25.2 44.786 26.0027 43.414 26.684L42.77 25.788C43.946 25.2 44.9213 24.514 45.696 23.73C46.48 22.9367 47.0633 22.0593 47.446 21.098C47.838 20.1273 48.034 19.082 48.034 17.962V17.78ZM43.358 17.78H48.622V18.746H43.358V17.78ZM64.7909 16.422H65.9529V23.226H64.7909V16.422ZM57.8049 23.856H58.9389V25.382H64.8049V23.856H65.9529V28.924H57.8049V23.856ZM58.9389 26.306V27.972H64.8049V26.306H58.9389ZM59.1629 17.024C59.8069 17.024 60.3762 17.15 60.8709 17.402C61.3656 17.6447 61.7529 17.9853 62.0329 18.424C62.3222 18.8627 62.4669 19.3713 62.4669 19.95C62.4669 20.5193 62.3222 21.028 62.0329 21.476C61.7529 21.9147 61.3656 22.2553 60.8709 22.498C60.3762 22.7407 59.8069 22.862 59.1629 22.862C58.5282 22.862 57.9589 22.7407 57.4549 22.498C56.9602 22.2553 56.5682 21.9147 56.2789 21.476C55.9989 21.028 55.8589 20.5193 55.8589 19.95C55.8589 19.3713 55.9989 18.8627 56.2789 18.424C56.5682 17.9853 56.9602 17.6447 57.4549 17.402C57.9589 17.15 58.5282 17.024 59.1629 17.024ZM59.1629 18.004C58.7429 18.004 58.3696 18.088 58.0429 18.256C57.7162 18.4147 57.4596 18.6433 57.2729 18.942C57.0862 19.2313 56.9929 19.5673 56.9929 19.95C56.9929 20.3233 57.0862 20.6593 57.2729 20.958C57.4596 21.2473 57.7162 21.476 58.0429 21.644C58.3696 21.812 58.7429 21.896 59.1629 21.896C59.5829 21.896 59.9562 21.812 60.2829 21.644C60.6096 21.476 60.8662 21.2473 61.0529 20.958C61.2396 20.6593 61.3329 20.3233 61.3329 19.95C61.3329 19.5673 61.2396 19.2313 61.0529 18.942C60.8662 18.6433 60.6096 18.4147 60.2829 18.256C59.9562 18.088 59.5829 18.004 59.1629 18.004Z" fill="white"/>
</svg>
